<svg xmlns="http://www.w3.org/2000/svg" width="800" height="400" viewBox="0 0 800 400">
  <rect width="800" height="400" fill="#1a3c5e" rx="12"/>
  <rect x="40" y="40" width="200" height="140" rx="10" fill="white" opacity="0.1"/>
  <rect x="40" y="55" width="200" height="8" rx="4" fill="#d4883a" opacity="0.8"/>
  <rect x="40" y="75" width="150" height="6" rx="3" fill="white" opacity="0.3"/>
  <rect x="40" y="90" width="180" height="6" rx="3" fill="white" opacity="0.3"/>
  <rect x="40" y="105" width="120" height="6" rx="3" fill="white" opacity="0.3"/>
  <rect x="280" y="40" width="200" height="140" rx="10" fill="white" opacity="0.1"/>
  <rect x="280" y="55" width="200" height="8" rx="4" fill="#d4883a" opacity="0.8"/>
  <rect x="280" y="75" width="150" height="6" rx="3" fill="white" opacity="0.3"/>
  <rect x="280" y="90" width="180" height="6" rx="3" fill="white" opacity="0.3"/>
  <rect x="520" y="40" width="200" height="140" rx="10" fill="white" opacity="0.1"/>
  <rect x="520" y="55" width="200" height="8" rx="4" fill="#d4883a" opacity="0.8"/>
  <circle cx="400" cy="300" r="60" fill="none" stroke="#d4883a" stroke-width="3" opacity="0.5"/>
  <circle cx="400" cy="300" r="40" fill="none" stroke="white" stroke-width="2" opacity="0.3"/>
  <text x="400" y="380" text-anchor="middle" fill="rgba(255,255,255,0.6)" font-family="sans-serif" font-size="14">Replace with your own image</text>
</svg>
